<?xml version="1.0" standalone="no"?>
<!DOCTYPE svg PUBLIC "-//W3C//DTD SVG 20010904//EN"
 "http://www.w3.org/TR/2001/REC-SVG-20010904/DTD/svg10.dtd">
<svg version="1.0" xmlns="http://www.w3.org/2000/svg"
 width="192.000000pt" height="192.000000pt" viewBox="0 0 192.000000 192.000000"
 preserveAspectRatio="xMidYMid meet">
<metadata>
Created by potrace 1.14, written by Peter Selinger 2001-2017
</metadata>
<g transform="translate(0.000000,192.000000) scale(0.100000,-0.100000)"
fill="#000000" stroke="none">
<path d="M817 1909 c-68 -10 -197 -47 -214 -61 -7 -6 -13 -8 -13 -4 0 8 -122
-57 -180 -97 -100 -69 -234 -220 -291 -327 -14 -25 -32 -46 -41 -46 -10 -1
-23 -2 -28 -3 -6 0 -3 -12 6 -26 15 -23 15 -28 0 -66 -45 -113 -66 -326 -45
-464 56 -359 312 -658 664 -770 102 -33 161 -40 310 -39 454 4 839 336 921
794 17 94 12 281 -10 374 -65 275 -251 514 -499 639 -72 37 -195 80 -258 92
-59 10 -262 13 -322 4z"/>
</g>
</svg>
